<svg width="175" height="72" viewBox="0 0 175 72" fill="none" xmlns="http://www.w3.org/2000/svg">
<g filter="url(#filter0_d_13_377)">
<path d="M4 15.363C4 7.07877 10.7157 0.363037 19 0.363037H156C164.284 0.363037 171 7.07877 171 15.363V48.363C171 56.6473 164.284 63.363 156 63.363H19C10.7157 63.363 4 56.6473 4 48.363V15.363Z" fill="#57E7FB"/>
<path d="M4.5 15.363C4.5 7.35491 10.9919 0.863037 19 0.863037H156C164.008 0.863037 170.5 7.35491 170.5 15.363V48.363C170.5 56.3712 164.008 62.863 156 62.863H19C10.9919 62.863 4.5 56.3712 4.5 48.363V15.363Z" stroke="#BBB1B1" stroke-opacity="0.9"/>
</g>
<defs>
<filter id="filter0_d_13_377" x="0" y="0.363037" width="175" height="71" filterUnits="userSpaceOnUse" color-interpolation-filters="sRGB">
<feFlood flood-opacity="0" result="BackgroundImageFix"/>
<feColorMatrix in="SourceAlpha" type="matrix" values="0 0 0 0 0 0 0 0 0 0 0 0 0 0 0 0 0 0 127 0" result="hardAlpha"/>
<feOffset dy="4"/>
<feGaussianBlur stdDeviation="2"/>
<feComposite in2="hardAlpha" operator="out"/>
<feColorMatrix type="matrix" values="0 0 0 0 0 0 0 0 0 0 0 0 0 0 0 0 0 0 0.25 0"/>
<feBlend mode="normal" in2="BackgroundImageFix" result="effect1_dropShadow_13_377"/>
<feBlend mode="normal" in="SourceGraphic" in2="effect1_dropShadow_13_377" result="shape"/>
</filter>
</defs>
</svg>
