<svg width="24" height="25" viewBox="0 0 24 25" fill="none" xmlns="http://www.w3.org/2000/svg">
<g clip-path="url(#clip0_37_1778)">
<path d="M20.9857 10.2249C20.0978 5.66037 16.2304 2.22485 11.5941 2.22485C6.30134 2.22485 2.01074 6.702 2.01074 12.2249C2.01074 14.1229 2.51751 15.8975 3.39756 17.4092C2.97037 18.4779 2.53595 19.7409 2.25817 20.9017C2.10229 21.5532 2.64997 22.1024 3.26999 21.9228C4.34489 21.6113 5.52759 21.1583 6.54639 20.7269C7.49279 21.34 8.54912 21.7858 9.67741 22.0248" stroke="black" stroke-width="3" stroke-linecap="round" stroke-linejoin="round"/>
<path d="M10.6357 17.2249C10.6357 13.9112 13.2101 11.2249 16.3857 11.2249C19.5614 11.2249 22.1357 13.9112 22.1357 17.2249C22.1357 18.3762 21.825 19.4517 21.2863 20.3652C21.4929 20.8208 21.6985 21.3455 21.8609 21.9078C22.0466 22.5507 21.4947 23.1035 20.8831 22.8948C20.368 22.719 19.8805 22.5085 19.4486 22.3038C18.5618 22.8873 17.5115 23.2249 16.3857 23.2249C13.2101 23.2249 10.6357 20.5386 10.6357 17.2249Z" stroke="black" stroke-width="3" stroke-linejoin="round"/>
</g>
<defs>
<clipPath id="clip0_37_1778">
<rect width="23" height="24" fill="white" transform="translate(0.573242 0.724854)"/>
</clipPath>
</defs>
</svg>
