<svg width="24" height="25" viewBox="0 0 24 25" fill="none" xmlns="http://www.w3.org/2000/svg">
<g clip-path="url(#clip0_36_540)">
<path d="M20.9857 10.2246C20.0978 5.66013 16.2304 2.22461 11.5941 2.22461C6.30134 2.22461 2.01074 6.70176 2.01074 12.2246C2.01074 14.1227 2.51751 15.8972 3.39756 17.409C2.97037 18.4776 2.53595 19.7407 2.25817 20.9015C2.10229 21.5529 2.64997 22.1021 3.26999 21.9225C4.34489 21.6111 5.52759 21.158 6.54639 20.7267C7.49279 21.3398 8.54912 21.7856 9.67741 22.0246" stroke="black" stroke-width="3" stroke-linecap="round" stroke-linejoin="round"/>
<path d="M10.6357 17.2246C10.6357 13.9109 13.2101 11.2246 16.3857 11.2246C19.5614 11.2246 22.1357 13.9109 22.1357 17.2246C22.1357 18.3759 21.825 19.4515 21.2863 20.3649C21.4929 20.8206 21.6985 21.3452 21.8609 21.9076C22.0466 22.5505 21.4947 23.1032 20.8831 22.8945C20.368 22.7188 19.8805 22.5082 19.4486 22.3035C18.5618 22.887 17.5115 23.2246 16.3857 23.2246C13.2101 23.2246 10.6357 20.5383 10.6357 17.2246Z" stroke="black" stroke-width="3" stroke-linejoin="round"/>
</g>
<defs>
<clipPath id="clip0_36_540">
<rect width="23" height="24" fill="white" transform="translate(0.573242 0.724609)"/>
</clipPath>
</defs>
</svg>
