<svg width="25" height="25" viewBox="0 0 25 25" fill="none" xmlns="http://www.w3.org/2000/svg">
<g clip-path="url(#clip0_36_670)">
<path d="M19.531 17.3232C19.639 17.3287 19.7395 17.3341 19.8328 17.3393C20.4656 17.3749 21.0315 17.7213 21.3165 18.2874C21.6886 19.0262 22.2011 20.1892 22.5784 21.6108C22.8072 22.4731 22.1747 23.2723 21.2832 23.3086C19.7904 23.3695 17.0955 23.4374 12.4998 23.4374C7.90398 23.4374 5.20908 23.3695 3.71622 23.3086C2.82484 23.2723 2.19233 22.4731 2.42113 21.6108C2.79835 20.1892 3.31093 19.0262 3.68293 18.2874C3.96798 17.7213 4.53382 17.3749 5.16664 17.3393C5.26002 17.3341 5.36054 17.3287 5.46845 17.3232" stroke="black" stroke-width="3" stroke-linecap="round" stroke-linejoin="round"/>
<path d="M20.3125 9.41135C20.3125 14.9479 14.7146 18.9223 12.9958 20.0121C12.6907 20.2056 12.3093 20.2056 12.0042 20.0121C10.2854 18.9223 4.6875 14.9479 4.6875 9.41135C4.6875 5.07654 8.18526 1.5625 12.5 1.5625C16.8147 1.5625 20.3125 5.07654 20.3125 9.41135Z" stroke="black" stroke-width="3" stroke-linecap="round" stroke-linejoin="round"/>
<path d="M15.625 9.375C15.625 11.1009 14.2259 12.5 12.5 12.5C10.7741 12.5 9.375 11.1009 9.375 9.375C9.375 7.64911 10.7741 6.25 12.5 6.25C14.2259 6.25 15.625 7.64911 15.625 9.375Z" stroke="black" stroke-width="3" stroke-linecap="round" stroke-linejoin="round"/>
</g>
<defs>
<clipPath id="clip0_36_670">
<rect width="25" height="25" fill="white"/>
</clipPath>
</defs>
</svg>
