<svg width="24" height="25" viewBox="0 0 24 25" fill="none" xmlns="http://www.w3.org/2000/svg">
<g clip-path="url(#clip0_36_164)">
<path d="M20.525 10.2466C19.6544 5.67881 15.8002 2.22861 11.1639 2.21099C5.8712 2.19087 1.56361 6.65168 1.54262 12.1745C1.5354 14.0725 2.03542 15.849 2.90971 17.3641C2.47847 18.4311 2.03925 19.6925 1.75706 20.8522C1.5987 21.5031 2.1443 22.0544 2.76499 21.8771C3.84107 21.5697 5.02548 21.1212 6.04592 20.6937C6.98998 21.3104 8.0446 21.7602 9.17198 22.0035" stroke="black" stroke-width="3" stroke-linecap="round" stroke-linejoin="round"/>
<path d="M10.1486 17.2072C10.1612 13.8936 12.7457 11.2171 15.9213 11.2291C19.097 11.2412 21.6611 13.9373 21.6485 17.2509C21.6441 18.4022 21.3293 19.4766 20.7871 20.388C20.992 20.8444 21.1956 21.3699 21.3559 21.9328C21.5391 22.5764 20.9851 23.1271 20.3743 22.916C19.8598 22.7383 19.3732 22.5259 18.942 22.3196C18.0531 22.8997 17.0015 23.2333 15.8757 23.229C12.7001 23.217 10.136 20.5209 10.1486 17.2072Z" stroke="black" stroke-width="3" stroke-linejoin="round"/>
</g>
<defs>
<clipPath id="clip0_36_164">
<rect width="23" height="24" fill="white" transform="translate(0.148865 0.669189) rotate(0.217785)"/>
</clipPath>
</defs>
</svg>
