<svg width="26" height="26" viewBox="0 0 26 26" fill="none" xmlns="http://www.w3.org/2000/svg">
<g clip-path="url(#clip0_37_1781)">
<path d="M20.1045 18.0481C20.2125 18.0536 20.313 18.059 20.4063 18.0642C21.0391 18.0998 21.605 18.4461 21.89 19.0122C22.262 19.751 22.7746 20.914 23.1518 22.3357C23.3806 23.198 22.7481 23.9971 21.8567 24.0335C20.3639 24.0943 17.669 24.1623 13.0732 24.1623C8.47746 24.1623 5.78257 24.0943 4.28971 24.0335C3.39832 23.9971 2.76582 23.198 2.99461 22.3357C3.37184 20.914 3.88442 19.751 4.25642 19.0122C4.54147 18.4461 5.10731 18.0998 5.74012 18.0642C5.8335 18.059 5.93402 18.0536 6.04194 18.0481" stroke="black" stroke-width="3" stroke-linecap="round" stroke-linejoin="round"/>
<path d="M20.8857 10.1362C20.8857 15.6728 15.2878 19.6471 13.5691 20.7369C13.2639 20.9304 12.8826 20.9304 12.5774 20.7369C10.8587 19.6471 5.26074 15.6728 5.26074 10.1362C5.26074 5.80139 8.7585 2.28735 13.0732 2.28735C17.388 2.28735 20.8857 5.80139 20.8857 10.1362Z" stroke="black" stroke-width="3" stroke-linecap="round" stroke-linejoin="round"/>
<path d="M16.1982 10.0999C16.1982 11.8257 14.7991 13.2249 13.0732 13.2249C11.3474 13.2249 9.94824 11.8257 9.94824 10.0999C9.94824 8.37397 11.3474 6.97485 13.0732 6.97485C14.7991 6.97485 16.1982 8.37397 16.1982 10.0999Z" stroke="black" stroke-width="3" stroke-linecap="round" stroke-linejoin="round"/>
</g>
<defs>
<clipPath id="clip0_37_1781">
<rect width="25" height="25" fill="white" transform="translate(0.573242 0.724854)"/>
</clipPath>
</defs>
</svg>
