<svg width="23" height="24" viewBox="0 0 23 24" fill="none" xmlns="http://www.w3.org/2000/svg">
<g clip-path="url(#clip0_36_667)">
<path d="M20.4125 9.5C19.5245 4.93552 15.6572 1.5 11.0208 1.5C5.7281 1.5 1.4375 5.97715 1.4375 11.5C1.4375 13.3981 1.94427 15.1726 2.82431 16.6844C2.39713 17.753 1.96271 19.0161 1.68493 20.1769C1.52904 20.8283 2.07673 21.3775 2.69675 21.1979C3.77165 20.8865 4.95434 20.4334 5.97315 20.0021C6.91955 20.6152 7.97587 21.061 9.10417 21.3" stroke="black" stroke-width="3" stroke-linecap="round" stroke-linejoin="round"/>
<path d="M10.0625 16.5C10.0625 13.1863 12.6369 10.5 15.8125 10.5C18.9881 10.5 21.5625 13.1863 21.5625 16.5C21.5625 17.6513 21.2518 18.7269 20.713 19.6403C20.9197 20.096 21.1253 20.6206 21.2877 21.1829C21.4733 21.8258 20.9214 22.3786 20.3098 22.1699C19.7947 21.9942 19.3073 21.7836 18.8753 21.5789C17.9886 22.1624 16.9383 22.5 15.8125 22.5C12.6369 22.5 10.0625 19.8137 10.0625 16.5Z" stroke="black" stroke-width="3" stroke-linejoin="round"/>
</g>
<defs>
<clipPath id="clip0_36_667">
<rect width="23" height="24" fill="white"/>
</clipPath>
</defs>
</svg>
