<svg width="26" height="26" viewBox="0 0 26 26" fill="none" xmlns="http://www.w3.org/2000/svg">
<g clip-path="url(#clip0_36_167)">
<path d="M20.4735 18.0628C20.5815 18.0687 20.682 18.0745 20.7753 18.08C21.4079 18.118 21.9725 18.4665 22.2554 19.0337C22.6246 19.7739 23.1327 20.9388 23.5045 22.3619C23.7301 23.2251 23.0945 24.0218 22.203 24.0548C20.71 24.11 18.0148 24.1676 13.4191 24.1502C8.82332 24.1327 6.1287 24.0545 4.63609 23.988C3.74485 23.9482 3.11538 23.1467 3.34746 22.2853C3.73008 20.8651 4.24708 19.704 4.62189 18.9666C4.90908 18.4016 5.47623 18.0574 6.10918 18.0243C6.20258 18.0194 6.30312 18.0144 6.41106 18.0093" stroke="black" stroke-width="3" stroke-linecap="round" stroke-linejoin="round"/>
<path d="M21.2848 10.1538C21.2638 15.6903 15.6508 19.6434 13.9279 20.7266C13.622 20.919 13.2407 20.9175 12.9362 20.7229C11.2216 19.6265 5.63888 15.6309 5.65992 10.0944C5.6764 5.75962 9.18749 2.2589 13.5022 2.2753C17.8169 2.2917 21.3013 5.81901 21.2848 10.1538Z" stroke="black" stroke-width="3" stroke-linecap="round" stroke-linejoin="round"/>
<path d="M16.5975 10.0997C16.591 11.8255 15.1865 13.2193 13.4607 13.2128C11.7348 13.2062 10.341 11.8018 10.3476 10.0759C10.3541 8.35003 11.7585 6.95625 13.4844 6.96281C15.2103 6.96937 16.6041 8.37379 16.5975 10.0997Z" stroke="black" stroke-width="3" stroke-linecap="round" stroke-linejoin="round"/>
</g>
<defs>
<clipPath id="clip0_36_167">
<rect width="25" height="25" fill="white" transform="translate(1.00824 0.665283) rotate(0.217785)"/>
</clipPath>
</defs>
</svg>
