<svg width="26" height="26" viewBox="0 0 26 26" fill="none" xmlns="http://www.w3.org/2000/svg">
<g clip-path="url(#clip0_36_543)">
<path d="M20.1045 18.0479C20.2125 18.0533 20.313 18.0587 20.4063 18.0639C21.0391 18.0995 21.605 18.4459 21.89 19.012C22.262 19.7508 22.7746 20.9138 23.1518 22.3355C23.3806 23.1977 22.7481 23.9969 21.8567 24.0332C20.3639 24.0941 17.669 24.162 13.0732 24.162C8.47746 24.162 5.78257 24.0941 4.28971 24.0332C3.39832 23.9969 2.76582 23.1977 2.99461 22.3355C3.37184 20.9138 3.88442 19.7508 4.25642 19.012C4.54147 18.4459 5.10731 18.0995 5.74012 18.0639C5.8335 18.0587 5.93402 18.0533 6.04194 18.0479" stroke="black" stroke-width="3" stroke-linecap="round" stroke-linejoin="round"/>
<path d="M20.8857 10.136C20.8857 15.6725 15.2878 19.6469 13.5691 20.7367C13.2639 20.9302 12.8826 20.9302 12.5774 20.7367C10.8587 19.6469 5.26074 15.6725 5.26074 10.136C5.26074 5.80115 8.7585 2.28711 13.0732 2.28711C17.388 2.28711 20.8857 5.80115 20.8857 10.136Z" stroke="black" stroke-width="3" stroke-linecap="round" stroke-linejoin="round"/>
<path d="M16.1982 10.0996C16.1982 11.8255 14.7991 13.2246 13.0732 13.2246C11.3474 13.2246 9.94824 11.8255 9.94824 10.0996C9.94824 8.37372 11.3474 6.97461 13.0732 6.97461C14.7991 6.97461 16.1982 8.37372 16.1982 10.0996Z" stroke="black" stroke-width="3" stroke-linecap="round" stroke-linejoin="round"/>
</g>
<defs>
<clipPath id="clip0_36_543">
<rect width="25" height="25" fill="white" transform="translate(0.573242 0.724609)"/>
</clipPath>
</defs>
</svg>
